<?xml version="1.0" encoding="utf-8"?>
<!-- Generator: Adobe Illustrator 18.0.0, SVG Export Plug-In . SVG Version: 6.00 Build 0)  -->
<!DOCTYPE svg PUBLIC "-//W3C//DTD SVG 1.1//EN" "http://www.w3.org/Graphics/SVG/1.1/DTD/svg11.dtd">
<svg version="1.1" id="Слой_1" xmlns:sketch="http://www.bohemiancoding.com/sketch/ns"
	 xmlns="http://www.w3.org/2000/svg" xmlns:xlink="http://www.w3.org/1999/xlink" x="0px" y="0px" viewBox="0 0 64 78"
	 enable-background="new 0 0 64 78" xml:space="preserve">
<title>Rectangle 1 + Oval 1 + Oval 1 + Oval 1</title>
<desc>Created with Sketch.</desc>
<title>Rectangle 1 + Oval 1 + Oval 1 + Oval 1</title>
<g>
	<path d="M24.2,40.7L24.2,40.7c-0.8-0.7-0.9-2-0.2-2.8L39.4,20c0.7-0.8,2-0.9,2.8-0.2l0,0c0.8,0.7,0.9,2,0.2,2.8L27.1,40.5
		C26.3,41.3,25.1,41.4,24.2,40.7z"/>
	<path d="M44.5,56.3L44.5,56.3c0.7-0.8,0.6-2.1-0.2-2.8l-18-15.2c-0.8-0.7-2.1-0.6-2.8,0.2l0,0c-0.7,0.8-0.6,2.1,0.2,2.8l18,15.2
		C42.6,57.2,43.8,57.1,44.5,56.3z"/>
	<desc>Created with Sketch.</desc>
</g>
</svg>
