<?xml version="1.0" encoding="utf-8"?>
<!-- Generator: Adobe Illustrator 18.0.0, SVG Export Plug-In . SVG Version: 6.00 Build 0)  -->
<!DOCTYPE svg PUBLIC "-//W3C//DTD SVG 1.1//EN" "http://www.w3.org/Graphics/SVG/1.1/DTD/svg11.dtd">
<svg version="1.1" id="Слой_1" xmlns:sketch="http://www.bohemiancoding.com/sketch/ns"
	 xmlns="http://www.w3.org/2000/svg" xmlns:xlink="http://www.w3.org/1999/xlink" x="0px" y="0px" viewBox="0 0 86 75"
	 enable-background="new 0 0 86 75" xml:space="preserve">
<title>Rectangle 1 + Oval 1 + Oval 1 + Oval 1</title>
<desc>Created with Sketch.</desc>
<g>
	<path d="M63,29.3H22.7c-1.6,0-3-1.3-3-3v-0.7c0-1.6,1.3-3,3-3H63c1.6,0,3,1.3,3,3v0.7C66,28,64.7,29.3,63,29.3z"/>
	<path d="M63,42.3H22.7c-1.6,0-3-1.3-3-3v-0.7c0-1.6,1.3-3,3-3H63c1.6,0,3,1.3,3,3v0.7C66,41,64.7,42.3,63,42.3z"/>
	<path d="M63,55.3H22.7c-1.6,0-3-1.3-3-3v-0.7c0-1.6,1.3-3,3-3H63c1.6,0,3,1.3,3,3v0.7C66,54,64.7,55.3,63,55.3z"/>
</g>
</svg>
